<?xml version="1.0" standalone="no"?>
<!DOCTYPE svg PUBLIC "-//W3C//DTD SVG 20010904//EN"
 "http://www.w3.org/TR/2001/REC-SVG-20010904/DTD/svg10.dtd">
<svg version="1.0" xmlns="http://www.w3.org/2000/svg"
 width="500.000000pt" height="500.000000pt" viewBox="0 0 500.000000 500.000000"
 preserveAspectRatio="xMidYMid meet">
<metadata>
Created by potrace 1.14, written by Peter Selinger 2001-2017
</metadata>
<g transform="translate(0.000000,500.000000) scale(0.100000,-0.100000)"
fill="#000000" stroke="none">
<path d="M2293 4986 c-4 -5 -1 -6 5 -2 7 4 12 1 12 -8 0 -8 -5 -18 -12 -22 -7
-4 -8 -3 -4 4 10 16 -7 15 -23 0 -11 -11 -12 -10 -6 1 5 8 -3 6 -21 -5 -15
-11 -25 -13 -21 -6 9 13 -5 17 -17 5 -8 -8 -13 -9 -42 -12 -8 0 -12 -5 -9 -11
3 -5 -1 -10 -9 -10 -9 0 -16 -5 -16 -11 0 -5 -5 -7 -11 -4 -6 4 -17 -1 -25
-11 -9 -11 -12 -12 -8 -4 4 9 -2 7 -13 -5 -11 -11 -19 -23 -16 -27 2 -4 -3 -5
-11 -2 -9 3 -17 -2 -21 -15 -3 -12 -11 -19 -16 -16 -5 4 -9 1 -9 -5 0 -6 -4
-8 -10 -5 -5 3 -10 -1 -10 -10 0 -9 -4 -13 -10 -10 -5 3 -10 1 -10 -5 0 -6
-15 -25 -32 -42 -18 -17 -27 -27 -19 -23 9 5 12 4 7 -3 -4 -7 -14 -12 -22 -12
-8 0 -13 -4 -10 -9 3 -5 -8 -25 -24 -46 -16 -21 -27 -41 -24 -46 3 -5 0 -9 -5
-9 -6 0 -10 -3 -10 -7 4 -22 -2 -33 -13 -27 -7 4 -10 4 -6 -1 4 -4 2 -15 -5
-23 -10 -13 -9 -15 3 -8 8 4 6 0 -4 -8 -13 -10 -15 -16 -7 -16 10 0 11 -3 2
-14 -6 -7 -9 -21 -5 -30 3 -9 2 -16 -2 -16 -5 0 -9 -23 -8 -50 1 -28 -3 -53
-9 -57 -5 -3 -3 -9 4 -14 8 -5 9 -9 3 -9 -7 0 -10 -13 -8 -30 2 -17 -1 -30 -7
-30 -8 0 -8 -4 0 -14 9 -11 9 -16 0 -21 -8 -6 -7 -10 2 -16 12 -8 12 -10 1
-18 -8 -4 -14 -12 -14 -16 0 -4 6 -12 14 -16 7 -5 8 -9 3 -9 -6 0 -11 -13 -11
-30 -1 -16 2 -27 7 -24 5 3 6 -2 3 -10 -3 -9 -9 -14 -13 -12 -4 3 -6 -9 -5
-26 1 -17 8 -35 16 -39 10 -7 8 -9 -7 -9 -15 0 -17 -2 -6 -9 9 -6 10 -10 2
-16 -9 -5 -9 -11 1 -23 7 -9 8 -13 3 -10 -6 4 -10 -23 -10 -72 0 -44 4 -76 9
-72 5 3 6 -1 1 -9 -12 -19 -14 -72 -3 -86 5 -6 5 -13 1 -16 -10 -6 -10 -128 0
-144 3 -5 4 -13 0 -17 -3 -3 -8 -17 -9 -31 -2 -17 1 -23 9 -18 9 5 9 3 1 -8
-6 -8 -10 -37 -9 -66 1 -32 -2 -50 -8 -46 -6 4 -7 1 -2 -8 12 -18 14 -69 3
-75 -4 -3 -8 -11 -8 -17 0 -7 4 -6 11 3 8 12 9 12 7 -5 -1 -11 1 -27 6 -35 5
-8 6 -12 1 -8 -4 4 -15 2 -23 -4 -15 -13 -176 -22 -262 -15 -14 1 -37 -1 -52
-5 -18 -4 -28 -3 -28 4 0 7 -4 7 -13 -1 -10 -8 -17 -7 -27 2 -8 7 -10 7 -7 1
4 -7 -3 -11 -18 -11 -14 0 -22 3 -20 8 3 4 -8 4 -24 -1 -19 -5 -33 -4 -40 3
-6 6 -11 7 -11 1 0 -5 -45 -9 -104 -9 -57 0 -102 3 -100 7 3 4 -1 5 -9 2 -26
-10 -107 -9 -107 1 0 6 -4 4 -9 -4 -7 -11 -9 -11 -14 0 -4 11 -6 11 -6 1 -1
-10 -6 -10 -21 -2 -11 6 -20 7 -20 3 0 -10 -74 -8 -91 2 -7 5 -10 4 -6 -2 4
-7 -5 -10 -26 -8 -17 1 -47 -7 -64 -17 -18 -11 -37 -17 -43 -13 -5 3 -10 2
-10 -2 0 -5 -10 -9 -21 -10 -12 -1 -32 -12 -45 -24 -12 -11 -27 -18 -33 -14
-6 3 -11 1 -11 -4 0 -6 -6 -11 -13 -11 -7 0 -18 -9 -25 -21 -7 -12 -16 -19
-18 -16 -3 3 -19 -8 -35 -24 -16 -16 -34 -29 -39 -29 -5 0 -12 -9 -15 -20 -4
-11 -10 -18 -15 -15 -9 5 -26 -33 -22 -48 1 -5 -2 -6 -7 -3 -12 8 -41 -21 -41
-40 0 -8 -4 -14 -9 -14 -5 0 -16 -12 -26 -26 -9 -15 -12 -23 -6 -20 6 4 3 -8
-7 -26 -9 -18 -20 -35 -25 -36 -4 -2 -5 -8 -1 -13 3 -5 0 -9 -6 -9 -6 0 -11
-10 -10 -22 1 -13 1 -25 0 -28 -4 -12 -20 -87 -22 -107 -1 -7 -6 -13 -11 -13
-5 0 -7 -9 -4 -20 3 -11 1 -23 -5 -26 -6 -4 -5 -10 3 -15 8 -5 9 -9 3 -9 -6 0
-9 -13 -6 -30 2 -17 9 -30 14 -30 6 0 4 -8 -3 -17 -10 -11 -10 -14 -1 -9 8 5
12 0 14 -16 1 -22 3 -35 8 -50 6 -19 8 -30 9 -58 1 -20 6 -30 17 -30 8 0 12
-4 9 -10 -3 -5 -1 -10 5 -10 7 0 10 -6 7 -12 -2 -7 5 -24 17 -37 11 -13 15
-21 7 -16 -9 5 -12 4 -7 -3 4 -7 14 -12 22 -12 8 0 13 -4 9 -9 -3 -5 1 -16 9
-24 8 -8 12 -17 9 -21 -4 -3 1 -6 9 -6 15 0 30 -21 32 -45 1 -5 10 -9 20 -7
11 2 15 -1 11 -7 -3 -6 1 -14 9 -17 9 -3 13 -10 10 -15 -3 -5 -2 -9 3 -8 16 4
43 -13 43 -27 0 -8 9 -14 21 -14 11 0 17 -4 14 -10 -3 -5 1 -10 9 -10 9 0 16
-4 16 -10 0 -5 7 -10 15 -10 8 0 15 -5 15 -11 0 -5 4 -8 9 -5 4 3 17 -2 27
-10 10 -9 13 -12 5 -8 -9 5 -12 3 -7 -5 4 -6 11 -9 16 -6 5 3 11 1 15 -5 3 -5
11 -10 16 -10 6 0 7 5 4 10 -3 6 14 -1 40 -14 25 -14 43 -19 39 -13 -3 7 1 4
9 -5 10 -13 16 -15 25 -6 9 9 12 9 12 -1 0 -7 4 -10 9 -7 5 4 21 2 35 -4 14
-5 27 -6 30 -2 5 9 59 8 74 -2 6 -3 14 -2 17 4 5 8 12 7 23 -2 9 -7 13 -8 10
-3 -7 11 171 13 189 2 6 -4 15 -3 18 3 5 8 12 7 23 -2 9 -7 13 -8 10 -3 -7 11
171 13 189 2 6 -4 15 -3 18 3 5 8 12 7 23 -2 9 -7 13 -8 10 -3 -4 7 57 10 175
9 175 -2 182 -2 199 -24 15 -18 16 -25 6 -31 -7 -5 -8 -9 -3 -9 6 0 8 -26 5
-68 -3 -38 -5 -130 -4 -205 0 -94 -3 -134 -10 -130 -7 4 -6 1 1 -8 16 -20 17
-31 1 -40 -11 -7 -11 -9 1 -9 11 0 11 -3 0 -17 -12 -15 -12 -16 1 -8 13 8 13
7 1 -8 -11 -14 -11 -17 0 -17 12 0 12 -2 1 -9 -17 -11 -17 -21 0 -32 7 -5 8
-9 2 -9 -12 0 -13 -48 -1 -67 4 -6 3 -14 -1 -17 -10 -6 -10 -46 1 -63 4 -6 3
-14 -2 -17 -10 -7 -9 -25 2 -43 4 -6 4 -14 -1 -17 -10 -6 -10 -66 1 -82 3 -6
3 -14 0 -18 -10 -10 -11 -66 -1 -72 4 -3 3 -14 -2 -25 -8 -14 -7 -19 1 -19 9
0 9 -3 0 -14 -8 -10 -9 -16 -2 -21 6 -3 11 -16 10 -28 0 -12 3 -40 6 -62 4
-22 7 -57 8 -78 1 -20 5 -37 8 -37 4 0 5 -10 1 -22 -3 -14 -1 -19 6 -14 8 5
10 2 6 -8 -4 -10 -1 -16 7 -16 7 0 9 -3 6 -7 -4 -3 -2 -12 4 -20 6 -7 8 -13 4
-13 -5 0 0 -10 11 -22 12 -13 13 -18 4 -13 -13 8 -13 6 -1 -8 7 -9 18 -14 25
-10 6 4 5 -1 -3 -10 -11 -15 -11 -17 2 -17 8 0 18 -11 21 -25 4 -14 11 -23 16
-20 6 3 10 1 10 -6 0 -7 16 -27 35 -45 18 -19 32 -34 29 -34 -3 0 1 -6 8 -14
9 -10 15 -11 20 -2 5 6 8 1 8 -13 0 -13 3 -22 6 -18 4 3 13 -1 21 -9 8 -8 19
-12 24 -9 5 4 9 0 9 -8 0 -24 24 -39 40 -24 7 6 10 7 7 2 -3 -6 6 -15 19 -22
18 -8 23 -8 18 0 -3 7 1 4 9 -5 8 -10 17 -15 20 -11 4 3 7 1 7 -6 0 -8 10 -11
30 -7 17 2 30 0 30 -6 0 -6 6 -5 15 2 12 10 15 10 15 -1 0 -9 3 -10 8 -4 11
15 52 12 62 -5 7 -10 10 -11 10 -2 0 6 5 12 11 12 5 0 7 -5 3 -12 -5 -7 -2 -9
9 -5 11 4 14 2 11 -7 -3 -8 -14 -12 -27 -8 -12 3 -19 1 -14 -3 4 -5 51 -9 105
-10 53 -1 91 0 85 2 -7 3 -13 9 -13 15 0 6 7 7 16 4 8 -3 12 -2 9 4 -3 6 3 10
14 10 12 0 21 5 21 11 0 5 5 7 10 4 6 -4 7 -11 4 -17 -4 -6 3 -4 16 5 16 11
28 13 41 7 12 -7 19 -6 22 3 4 9 6 8 6 -2 1 -11 4 -11 18 0 9 8 17 13 17 12 3
-6 46 10 46 17 0 8 49 25 63 22 4 -1 7 5 7 13 0 8 5 16 10 16 6 1 14 2 19 3 5
0 13 5 18 10 5 5 2 6 -6 1 -9 -5 -12 -4 -7 3 4 7 14 12 22 12 8 0 12 5 9 10
-3 6 1 10 9 10 9 0 16 7 16 16 0 8 3 13 8 11 4 -2 15 4 25 15 9 10 15 18 12
18 -3 0 8 14 25 31 16 17 32 40 35 50 4 11 11 19 16 19 5 0 9 7 9 15 0 8 5 15
12 15 6 0 8 3 5 7 -4 3 -1 13 6 21 10 13 9 15 -3 8 -8 -4 -6 0 4 8 11 9 16 16
10 16 -5 0 -3 4 4 9 7 4 14 18 15 29 1 12 4 22 8 22 4 0 6 11 4 25 -1 14 1 28
5 30 5 3 7 16 5 30 -1 14 2 28 8 32 6 4 7 1 2 -8 -5 -8 -4 -11 0 -6 5 4 9 25
10 47 1 22 4 43 8 46 4 4 2 13 -4 21 -9 9 -8 13 0 13 7 0 9 9 5 26 -5 21 -4
25 6 19 10 -6 11 -4 4 6 -12 20 -14 39 -3 39 6 0 7 6 3 12 -12 19 -12 48 0 48
6 0 4 5 -4 10 -13 8 -13 10 -1 10 12 0 12 3 3 12 -15 15 -16 31 0 22 7 -5 8
-3 2 7 -13 21 -14 39 -1 39 8 0 7 4 -1 12 -15 15 -16 31 0 22 7 -5 8 -3 2 7
-13 21 -14 39 -1 39 8 0 7 4 -1 12 -15 15 -16 31 0 22 7 -5 8 -3 2 7 -12 20
-14 39 -3 39 6 0 7 6 2 13 -10 16 -11 26 -2 60 4 15 4 25 -1 22 -4 -3 -6 14
-3 37 5 41 5 51 0 108 -2 14 1 35 5 48 5 13 4 21 -1 18 -5 -3 -8 5 -7 19 0 14
6 25 11 25 7 0 7 3 0 8 -5 4 -10 45 -10 92 0 47 5 88 10 92 6 5 5 8 -2 8 -7 0
-10 6 -7 14 3 8 0 17 -6 21 -8 5 -8 11 1 21 6 8 9 22 7 32 -3 10 1 23 9 30 7
7 13 10 13 8 0 -3 12 -1 26 4 18 7 23 7 18 -2 -4 -7 -3 -8 5 -4 16 10 115 11
131 1 8 -5 11 -4 6 3 -8 14 66 11 76 -3 5 -7 8 -7 8 0 0 12 131 12 150 0 8 -5
11 -4 6 3 -8 14 66 11 76 -3 5 -7 8 -7 8 0 0 12 251 12 270 0 8 -5 11 -4 7 1
-6 11 145 10 162 -1 6 -3 11 -2 11 4 0 6 14 9 30 7 17 -2 33 1 36 6 4 5 15 8
25 5 10 -3 17 0 16 5 -2 10 21 18 53 20 8 0 21 5 28 11 6 5 12 6 12 1 0 -4 7
1 15 12 8 10 15 15 15 11 0 -5 7 -1 16 8 9 9 22 14 28 12 14 -5 47 29 38 39
-4 4 -2 4 5 0 6 -3 14 -2 18 4 4 6 11 8 16 5 5 -3 6 2 2 11 -4 12 -3 15 5 10
7 -4 12 -2 12 4 0 6 5 8 10 5 6 -3 10 -2 10 3 0 13 41 57 50 55 5 -1 11 4 14
13 4 10 1 13 -7 9 -6 -4 2 6 18 22 17 15 37 37 45 47 13 18 13 19 0 12 -8 -4
-6 0 5 9 11 9 19 21 18 26 -2 5 2 9 9 9 6 0 9 3 5 6 -3 4 0 19 9 35 8 16 11
29 7 29 -5 0 -2 4 5 9 7 4 14 19 16 32 2 13 6 31 9 39 4 8 8 26 9 40 2 14 7
31 11 38 5 7 3 12 -4 12 -8 0 -8 4 -2 13 12 14 11 87 -2 106 -6 10 -4 12 4 6
10 -6 11 -3 2 14 -7 11 -9 21 -5 21 3 0 0 8 -7 17 -12 15 -12 16 1 8 12 -7 13
-6 4 6 -5 8 -10 26 -9 42 0 15 -2 27 -5 27 -4 0 -7 6 -7 14 0 8 -8 31 -18 52
-11 22 -20 46 -21 54 -2 8 -8 16 -13 18 -6 2 -11 10 -11 18 0 8 -4 14 -10 14
-5 0 -10 7 -10 16 0 8 -17 31 -37 51 -21 19 -31 32 -23 28 8 -3 6 1 -5 10 -11
9 -20 20 -20 25 0 4 -4 12 -9 17 -5 5 -6 3 -2 -4 13 -22 -4 -14 -34 17 -16 17
-33 30 -37 30 -5 0 -14 9 -21 20 -7 12 -17 18 -22 15 -6 -3 -10 -1 -10 4 0 6
-3 10 -7 9 -12 -2 -46 14 -61 29 -8 7 -18 11 -23 8 -5 -4 -9 -2 -9 3 0 5 -7 9
-15 9 -26 0 -95 26 -95 36 0 5 -7 4 -15 -3 -8 -7 -15 -8 -15 -3 0 5 -20 8 -45
7 -30 -2 -43 1 -39 8 5 7 2 8 -6 3 -17 -10 -133 -10 -150 0 -8 5 -11 4 -7 -2
8 -12 -54 -10 -74 3 -8 5 -9 3 -5 -5 10 -15 -25 -11 -36 4 -5 7 -8 6 -8 -1 0
-11 -51 -10 -71 1 -7 5 -10 4 -6 -2 3 -5 -12 -9 -38 -9 -24 1 -41 4 -39 8 2 4
-8 3 -24 -1 -17 -5 -36 -5 -47 1 -10 6 -15 6 -12 1 3 -5 -13 -9 -38 -9 -24 1
-41 4 -39 8 2 4 -8 3 -24 -1 -17 -5 -36 -5 -47 1 -10 6 -15 6 -12 1 3 -5 -13
-9 -38 -9 -24 1 -41 5 -38 10 4 5 0 6 -7 1 -19 -12 -154 -8 -158 5 -2 5 -11
10 -20 10 -10 0 -13 3 -7 8 6 4 10 22 10 40 -1 17 3 32 8 32 4 0 5 5 1 12 -10
16 -11 88 -1 88 4 0 5 5 2 10 -11 18 -12 110 0 110 6 0 7 3 0 8 -5 4 -10 14
-10 22 0 8 5 18 10 22 7 5 7 8 0 8 -12 0 -12 201 0 220 5 9 4 11 -3 6 -7 -4
-12 -2 -12 3 0 6 5 11 11 11 5 0 7 5 3 12 -11 18 -11 88 1 88 7 0 7 3 0 8 -13
9 -18 55 -5 47 5 -3 7 0 4 9 -10 27 -9 176 1 176 7 0 7 3 0 8 -5 4 -10 14 -10
22 0 8 5 18 10 22 7 5 7 8 0 8 -5 0 -10 19 -9 42 1 24 -4 49 -10 57 -8 11 -8
13 2 7 6 -4 12 -3 12 1 0 5 -6 15 -12 22 -11 11 -10 12 2 6 13 -8 13 -6 2 8
-8 9 -11 21 -7 27 3 5 2 10 -4 10 -5 0 -8 9 -6 20 2 11 0 20 -4 20 -4 0 -8 13
-9 29 0 17 -5 38 -11 49 -7 13 -7 23 2 32 10 10 9 11 -2 5 -11 -6 -13 -4 -8 9
4 10 3 15 -3 11 -11 -7 -33 31 -26 44 3 4 -4 18 -15 29 -11 12 -17 22 -13 22
4 0 -2 8 -12 18 -10 9 -20 24 -22 32 -2 8 -12 22 -22 32 -11 9 -20 21 -20 28
0 6 -4 9 -9 6 -4 -3 -22 12 -40 34 -18 22 -38 40 -46 40 -8 0 -15 5 -15 10 0
6 -4 10 -10 10 -5 0 -19 9 -30 20 -12 12 -25 18 -29 15 -5 -2 -12 2 -15 11 -4
9 -13 14 -21 10 -9 -3 -15 0 -15 9 0 8 -8 12 -20 10 -11 -2 -22 0 -25 6 -4 5
-14 5 -25 -1 -16 -9 -18 -8 -14 5 5 13 2 14 -20 5 -15 -5 -25 -6 -22 -1 3 5
-1 12 -10 15 -8 3 -12 2 -9 -4 3 -6 2 -10 -3 -10 -5 0 -12 8 -14 18 -3 10 -13
19 -22 19 -9 0 -15 -5 -13 -11 3 -6 9 -10 14 -9 5 1 10 -5 10 -14 0 -12 -7 -9
-23 10 -26 31 -56 37 -48 10 5 -16 4 -16 -6 0 -10 16 -24 18 -107 15 -52 -2
-97 -7 -100 -12z m232 -4945 c-9 -8 -36 -10 -30 -2 2 4 11 8 20 8 8 0 13 -3
10 -6z m-75 -16 c0 -7 -30 -13 -34 -7 -3 4 4 9 15 9 10 1 19 0 19 -2z"/>
</g>
</svg>
